<svg viewBox="0 0 700 200" xmlns="http://www.w3.org/2000/svg">
    <defs>
        <filter id="shadow" x="-20%" y="-20%" width="140%" height="140%">
            <feDropShadow dx="0" dy="4" stdDeviation="6" flood-opacity="0.15"/>
        </filter>
        <marker id="arrowhead" markerWidth="10" markerHeight="7" refX="9" refY="3.5" orient="auto">
            <polygon points="0 0, 10 3.5, 0 7" fill="#94a3b8"/>
        </marker>
    </defs>

    <!-- Controller -->
    <rect x="50" y="70" width="140" height="60" rx="10" fill="#8b5cf6" filter="url(#shadow)"/>
    <text x="120" y="100" text-anchor="middle" fill="white" font-weight="600" font-size="14">Controller</text>
    <text x="120" y="118" text-anchor="middle" fill="rgba(255,255,255,0.8)" font-size="10">HTTP Layer</text>

    <!-- Flecha 1 -->
    <path d="M 195 100 L 245 100" stroke="#94a3b8" stroke-width="2" fill="none" marker-end="url(#arrowhead)"/>

    <!-- DTO Box -->
    <rect x="250" y="50" width="200" height="100" rx="12" fill="#fce7f3" stroke="#ec4899" stroke-width="2"/>
    <text x="350" y="80" text-anchor="middle" fill="#9d174d" font-weight="700" font-size="14">DTO</text>
    <text x="350" y="100" text-anchor="middle" fill="#be185d" font-size="11">SecurityDTO</text>
    <text x="350" y="116" text-anchor="middle" fill="#be185d" font-size="11">BillDTO</text>
    <text x="350" y="132" text-anchor="middle" fill="#be185d" font-size="11">InventoryDTO</text>

    <!-- Flecha 2 -->
    <path d="M 455 100 L 505 100" stroke="#94a3b8" stroke-width="2" fill="none" marker-end="url(#arrowhead)"/>

    <!-- Service -->
    <rect x="510" y="70" width="140" height="60" rx="10" fill="#f59e0b" filter="url(#shadow)"/>
    <text x="580" y="100" text-anchor="middle" fill="white" font-weight="600" font-size="14">Service</text>
    <text x="580" y="118" text-anchor="middle" fill="rgba(255,255,255,0.8)" font-size="10">Business Logic</text>

    <!-- Labels -->
    <text x="220" y="85" text-anchor="middle" fill="#64748b" font-size="9">Request</text>
    <text x="480" y="85" text-anchor="middle" fill="#64748b" font-size="9">Response</text>

    <!-- Nota -->
    <rect x="50" y="160" width="600" height="30" rx="6" fill="#f1f5f9"/>
    <text x="350" y="180" text-anchor="middle" fill="#64748b" font-size="11">💡 Los DTOs controlan qué datos se exponen/reciben sin exponer Entities directamente</text>
</svg>
